<?xml version="1.0" standalone="no"?>
<!DOCTYPE svg PUBLIC "-//W3C//DTD SVG 20010904//EN"
 "http://www.w3.org/TR/2001/REC-SVG-20010904/DTD/svg10.dtd">
<svg version="1.0" xmlns="http://www.w3.org/2000/svg"
 width="80.000000pt" height="80.000000pt" viewBox="0 0 80.000000 80.000000"
 preserveAspectRatio="xMidYMid meet">
<metadata>
Created by potrace 1.10, written by Peter Selinger 2001-2011
</metadata>
<g transform="translate(0.000000,80.000000) scale(0.100000,-0.100000)"
fill="#000000" stroke="none">
<path d="M229 666 c-93 -33 -154 -94 -185 -188 -23 -70 -15 -162 20 -224 14
-25 26 -48 26 -50 0 -2 -13 -4 -30 -4 -29 0 -30 -1 -30 -50 l0 -50 310 0 310
0 0 -40 c0 -22 3 -40 8 -40 4 0 39 29 77 64 l70 64 -70 71 c-38 39 -73 71 -77
71 -5 0 -8 -20 -8 -45 l0 -45 -55 0 -54 0 24 36 c124 183 -23 445 -248 444
-29 -1 -68 -7 -88 -14z m84 -18 c4 -10 8 -10 15 1 8 11 19 10 68 -4 83 -24
155 -96 179 -179 14 -49 15 -60 4 -67 -11 -7 -11 -11 -2 -17 19 -12 5 -75 -31
-135 -22 -36 -47 -61 -84 -83 -63 -38 -121 -52 -134 -32 -8 10 -11 10 -15 1
-3 -10 -40 -13 -134 -13 l-129 0 0 30 0 30 129 0 c94 0 131 -3 134 -12 4 -9 8
-10 14 -2 4 6 24 14 43 18 54 10 107 53 135 109 14 28 25 59 25 68 0 10 6 20
13 22 8 4 9 8 2 14 -6 4 -17 28 -24 53 -8 28 -29 61 -55 86 -25 26 -58 47 -86
55 -25 7 -48 18 -52 24 -6 7 -10 7 -15 0 -5 -6 -28 -17 -53 -24 -59 -17 -124
-82 -141 -141 -7 -25 -18 -49 -24 -53 -7 -6 -6 -10 3 -14 6 -2 12 -12 12 -22
0 -33 51 -120 83 -141 l32 -20 -55 2 c-55 3 -55 3 -81 52 -32 59 -44 117 -26
128 9 6 9 10 -1 16 -35 23 39 173 105 213 69 43 137 60 146 37z m75 -83 c49
-21 81 -52 103 -100 25 -55 24 -102 -6 -161 -33 -66 -80 -97 -156 -102 -80 -6
-136 26 -173 100 -30 59 -33 103 -11 156 21 49 52 81 100 103 49 23 94 24 143
4z m337 -460 l-50 -44 -3 29 -3 30 -122 1 c-87 0 -115 3 -99 10 13 5 35 18 49
29 20 16 41 20 99 20 l74 0 0 37 0 38 53 -53 52 -53 -50 -44z"/>
<path d="M284 516 c-5 -22 -8 -24 -30 -14 -36 16 -62 -10 -46 -46 10 -22 8
-25 -14 -30 -35 -9 -35 -63 0 -72 22 -5 24 -8 14 -30 -16 -36 10 -62 46 -46
22 10 25 8 30 -14 5 -19 13 -24 36 -24 23 0 31 5 36 24 5 22 8 24 30 14 20 -9
28 -8 41 5 13 13 14 21 5 41 -10 22 -8 25 14 30 19 5 24 13 24 36 0 23 -5 31
-24 36 -22 5 -24 8 -14 30 9 20 8 28 -5 41 -13 13 -21 14 -41 5 -22 -10 -25
-8 -30 14 -9 35 -63 35 -72 0z m56 -21 c10 -27 29 -32 48 -13 9 9 15 9 24 0 9
-9 9 -15 0 -24 -19 -19 -14 -38 13 -48 14 -5 25 -14 25 -20 0 -6 -11 -15 -25
-20 -27 -10 -32 -29 -13 -48 9 -9 9 -15 0 -24 -9 -9 -15 -9 -24 0 -19 19 -38
14 -48 -13 -5 -14 -14 -25 -20 -25 -6 0 -15 11 -20 25 -10 27 -29 32 -48 13
-9 -9 -15 -9 -24 0 -9 9 -9 15 0 24 19 19 14 38 -13 48 -14 5 -25 14 -25 20 0
6 11 15 25 20 27 10 32 29 13 48 -9 9 -9 15 0 24 9 9 15 9 24 0 19 -19 38 -14
48 13 5 14 14 25 20 25 6 0 15 -11 20 -25z"/>
<path d="M282 428 c-15 -15 -15 -61 0 -76 7 -7 24 -12 38 -12 33 0 50 17 50
50 0 33 -17 50 -50 50 -14 0 -31 -5 -38 -12z m63 -38 c0 -18 -6 -26 -23 -28
-13 -2 -25 3 -28 12 -10 26 4 48 28 44 17 -2 23 -10 23 -28z"/>
</g>
</svg>
