<?xml version="1.0" encoding="UTF-8"?>
<svg id="Layer_2" data-name="Layer 2" xmlns="http://www.w3.org/2000/svg" viewBox="0 0 86.4 77">
  <defs>
    <style>
      .cls-1 {
        fill: #004270;
      }
    </style>
  </defs>
  <g id="Logos">
    <g>
      <g>
        <path class="cls-1" d="m6.28,64.21l-4.85,12.79h2.52c.28,0,.53-.08.72-.23.19-.15.32-.46.4-.66l.66-1.95h4.27l.67,1.97c.09.21.23.53.41.66.19.14.43.22.72.22h2.5l-4.85-12.79h-3.18Zm1.53,3.85c.02-.06.04-.13.06-.19.02.06.04.12.06.18.1.29.19.54.27.74l1.02,3.01h-2.68l1.01-2.98c.08-.21.17-.47.27-.76Z"/>
        <path class="cls-1" d="m24.1,70.42c-.27-.26-.58-.48-.92-.66-.33-.16-.67-.31-1.02-.43-.34-.12-.67-.23-1-.33-.31-.09-.59-.2-.83-.31-.22-.1-.41-.23-.54-.37-.11-.12-.17-.26-.17-.45,0-.32.1-.56.31-.74.21-.19.56-.28,1.03-.28.28,0,.53.04.74.11.22.08.43.16.6.25l.5.27c.39.21.76.18,1,0,.12-.08.22-.21.32-.36l.79-1.47-.13-.12c-.23-.21-.49-.4-.77-.56-.28-.16-.59-.3-.92-.42-.33-.12-.68-.21-1.04-.27-.36-.06-.74-.09-1.12-.09-.69,0-1.31.11-1.85.32-.54.21-1,.5-1.37.85-.37.36-.66.77-.86,1.23-.19.46-.29.93-.29,1.41,0,.59.08,1.1.25,1.5.17.41.39.76.66,1.03.27.27.58.5.92.67.33.16.67.3,1.02.41.34.11.67.21,1,.3.31.08.58.18.82.29.22.1.4.23.53.38.12.14.18.31.18.54,0,.42-.11.71-.34.89-.24.19-.59.29-1.05.29-.35,0-.65-.05-.9-.14-.26-.1-.5-.21-.7-.33-.21-.13-.4-.24-.57-.35-.37-.23-.76-.25-1.09-.06-.14.08-.25.18-.34.31l-.93,1.46.13.13c.25.25.55.48.88.68.33.2.69.37,1.06.52.38.15.77.26,1.17.34.4.08.8.12,1.19.12.71,0,1.35-.11,1.92-.33.56-.22,1.05-.52,1.44-.9.39-.38.69-.84.89-1.35.2-.51.31-1.06.31-1.65,0-.53-.08-1-.25-1.38-.17-.38-.39-.71-.66-.98Z"/>
        <polygon class="cls-1" points="36.25 69.39 31.8 69.39 31.8 64.21 28.53 64.21 28.53 77 31.8 77 31.8 71.76 36.25 71.76 36.25 77 39.52 77 39.52 64.21 36.25 64.21 36.25 69.39"/>
        <path class="cls-1" d="m54.24,66.06c-.57-.57-1.26-1.03-2.05-1.35-.79-.33-1.69-.49-2.65-.49s-1.86.16-2.65.49c-.8.32-1.49.78-2.06,1.35-.57.57-1.01,1.25-1.33,2.03-.31.77-.47,1.62-.47,2.52s.16,1.75.47,2.52c.31.78.76,1.46,1.32,2.03.57.57,1.26,1.03,2.06,1.36.8.32,1.69.49,2.65.49s1.86-.16,2.65-.49c.8-.32,1.49-.78,2.05-1.36.57-.57,1.01-1.26,1.32-2.03.31-.78.47-1.62.47-2.52s-.16-1.74-.47-2.51c-.31-.78-.76-1.46-1.32-2.03Zm-1.53,4.54c0,.58-.07,1.1-.22,1.55-.15.45-.35.83-.62,1.14-.27.3-.6.54-.98.7-.78.33-1.93.32-2.71,0-.39-.16-.72-.39-.99-.7-.27-.31-.48-.69-.62-1.14-.15-.45-.22-.97-.22-1.55s.07-1.09.22-1.54c.14-.45.35-.83.62-1.14.27-.3.6-.54.99-.7.39-.16.85-.25,1.36-.25s.96.08,1.35.25c.39.16.72.4.98.7.27.31.48.69.62,1.14.15.45.22.97.22,1.54Z"/>
        <path class="cls-1" d="m66.6,70.33c-.08-.06-.17-.12-.25-.18.19-.15.37-.34.54-.57l3.84-5.37h-2.88c-.31,0-.57.05-.78.14-.22.09-.42.26-.61.51l-2.72,4.07c-.14.2-.37.29-.71.29h-.22v-5.02h-3.25v12.79h3.25v-5.28h.45c.23,0,.41.03.53.08.11.05.2.12.28.24l2.74,4.34c.06.09.13.18.2.25.08.08.17.15.27.2.1.05.22.09.36.12.13.02.28.04.45.04h2.92l-3.87-6.09c-.16-.24-.34-.44-.53-.59Z"/>
        <path class="cls-1" d="m80.12,64.21h-3.18l-4.85,12.79h2.52c.28,0,.53-.08.72-.23.19-.15.32-.32.4-.52l.66-2.09h4.27l.67,2.11c.09.21.23.39.41.52.19.14.43.22.72.22h2.5l-4.85-12.79Zm-1.65,3.85c.02-.06.04-.13.06-.19.02.06.04.12.06.18.1.29.19.54.27.74l1.02,3.01h-2.68l1.01-2.98c.08-.21.17-.47.27-.76Z"/>
      </g>
      <path class="cls-1" d="m85.65,26.34c-.14-.79-.97-1.4-1.9-.28-.93,1.12-.58.01-1.49.47-1.02.51-1.21.19-2-.42-.43-.33-.51-2.14-1.19-1.18-.96,1.36-.7-.65-1.13-.82-.93-.37-1.58.28-1.95.7-.37.42-1.67.23-2.23-.75-.56-.98.42-1.26.7-.79.28.47,1.3-.05.79-.75-.51-.7,1.86-.98,2.74-1.3.88-.33,0-.84-.74-.79-.74.05-1.16.14-1.49-.75-.32-.88-.7-.65-.88-.46-.19.19-.46.88-1.49.09-1.02-.79.37-1.21.84-.79.46.42.7-1.16,1.49-1.12.79.05,1.9.46,2.69.42.79-.05,1.25.51.32.65-.93.14-.7.98-.28,1.21.42.23,1.11-.98,1.76-.51.65.47,1.35-.19,2.46.37,1.11.56,1.11.14,1.63-.09.51-.23,1.21-.46,1.16-1.07-.05-.61-1.21,0-1.76-1.07-.35-.68-1.16-.37-2-.23-.83.14-1.25.98-1.58.33-.33-.65,2.09-1.49,2.23-2.1.14-.61-.46.19-.7-.61-.23-.79-.74-.56-1.49-.51-.74.05-1.11-.65-1.67-.7-.56-.05-.97.98-1.95.93-.97-.05-.65-.88-1.25-1.49-.6-.61.14-1.49.7-.33.56,1.16.74.61,1.25.28.51-.33,1.02-.84,1.9-.05.88.79.74.14,1.3-.14.56-.28.7-.88.32-.88s-2.18-.28-1.21-.75c.72-.34.56-.53.07-.95-.33-.28-.7-.16-.63-.55.04-.17-.54-.81-.97-.73-.42.08-1.43.38-1.3-.85.09-.93-.34-.13-.81-.19-.47-.06-.88.95-1.14.05-.3-1.08-1.52.31-1.58.25-.1-.09-.23.79-.8.71-.57-.08-1.46,1.04-1.32.3.14-.73-.32.02-.48.04-.84.09-1.9.65-.33,1.72,1.58,1.07.05.98-.88,1.21-.93.23-.46.98-.09,1.4.37.42-.28,1.49-.74.47-.46-1.03-.74-.42-1.35.05-.6.47-.37-.61-.09-.61s.37.05.79-1.21c.42-1.26-2.04-2.75-2.14-3.59-.09-.84-.6-1.54-1.11-1.12-.51.42-.88.23-1.44-.42-.56-.65-.74.37-1.07.28-.32-.09-1.02-.09-1.76.47-1.94,1.46.51,1.16.88,1.58.84.95-.23,1.31-.74.7-.51-.61-.65-.14-.97-.09-.32.05-.79-.23-1.11-.56-.32-.33-.88-.84-1.35-.19-.46.65-.97.33-1.86-.56-.88-.88-1.02-.23-1.16.33-.14.56-1.3.47-1.67.56-.37.09-1.25,1.44-2.09-.28-.83-1.72.74-1.77,1.76-1.54,1.02.23.23-1.35,1.67-1.26,1.44.09.47.37,1.81.84,1.35.47.7-.89,1.72-.79,1.02.09.46-.75,1.81-1.54.8-.47-1.16-1.16-2.18-.93-1.02.23-1.11-.23-1.72-.56-.6-.33-1.35-.42-1.86.09-1.3,1.31-1.25.05-1.25-.56s-2-1.72-2.97-1.86c-.97-.14-2.69,1.72-3.2,1.12-.51-.61-1.11-.14-2.37,0-1.25.14-.65.61-.05,1.12.6.51-.37.56-.88.46-.51-.09-.97.61.37.93,1.35.33.23.75-.28.75s-1.25.47-2,1.4c-.74.93-1.25.7-2.09.51-.83-.19,0-1.86.46-1.77.46.09,1.81-.75,1.49-1.63-.32-.89-.32-.65.7-1.4,1.02-.74,0-1.35-.46-1.54-.46-.19-1.3.84-1.76.28-.46-.56-.93-.56-1.49-.56s-.5.95-1.21.28c-.19-.17-.41-.31-.65-.41-.24-.1-.68-.48-.8-.22-.27.58-1.01-1.42-1.1.02-.02.4-.51.14-.7-.09-.26-.33-.74.28-1.05.2-.54-.15-.86.41-1.13.32-.42-.14-1.57-1.24-2.09-.14-.51,1.07.83.37.7,1.07-.14.7.65,1.16.23,1.63s-2,.75-3.02-.05c-1.02-.79-1.53.7-1.72,1.49-.19.79,1.49.61,1.72,1.07.23.46,1.95-.33,3.11.19,1.16.51-.97.47-1.07.89-.09.42.97-.09,1.25.56.28.65.74,0,1.49.61.74.61,1.35.14,2-.19.65-.33,1.49.46,1.39.93-.09.47-.6.33-1.02.79-.42.47-1.02-.79-1.67.23-.65,1.03,1.25.05,1.53.65.28.61.88.51,1.02.74.14.23-.97.98-1.62,1.31-.65.33-1.16.7-2.28.51-1.11-.19.56-1.63-.84-1.77-.42-.04-1.44-.37-1.35-.98.09-.61-1.9-2.66-2.46-3.12-.56-.47.14,1.82-.65,1.77-.79-.05-1.81-1.63-3.2-2.61-.66-.46-1.35-.14-1.94-.35-.32-.11-.87.63-.95.28-.35-1.42-.77.39-1,.21-.36-.29-.54.55-.97.23-.35-.26-.39.59-.46,1.31-.14,1.4-.74.56-2.18.79-1.44.23-1.44,1.82-1.35,2.38.09.56-.23,1.02-1.07.7-.84-.33.05-1.02-.7-1.3-.74-.28-2.51,1.96-2.51,2.47s1.39-.28,2.18.89c.46.69,1.9-.14,2.41.37.51.51,2-.61,2.41-1.12.42-.51,1.35-.61,2-.7.65-.09.74,1.07.74,1.44s1.21.09.79,1.21c-.18.47-.7.37-2.65.51-1.95.14.42.74.32,1.21-.09.47-1.81.28-2.28.84-.46.56,1.53,1.77,2.23,2.05.69.28,2.51-1.3,2.92-.84.42.47.65,1.21,1.39,1.82.74.61,1.07.74,0,1.82-1.07,1.07-2.79-.28-2.79-.28-1.11-.23-1.72-.84-2.37.14-.4.61-.19,1.49-.74,1.91-.56.42-1.02-.79-1.86-.7-1.57.17-1.5-1.29-2.23-1.54-.46-.15-2.01,1.4-1.95-.39.07-2.16-1.14.02-1.53-.31-.87-.73-1.5.98-1.91-.21-.16-.46-.93.2-1.25.4-.74.47,0,1.86-.79,1.91-.79.05-.56.46-1.11.98-.56.51,0,1.12-.33,1.35-.32.23-.27.96-.09,1.07.42.28.51-1.4,1.02-.28.51,1.12-1.25,1.4-1.53.98-.28-.42-.65-1.63-.93-.42-.22.96-1.44,1.31-1.35,1.77.18.91,1.35.14,2.14-.14.79-.28.74,1.16.74,2.1,0,.93,1.07.65,1.35.89.28.23.7.56,1.21.61.51.05,1.02-.89.05-1.03-.97-.14,0-.84-1.11-.74-1.11.09-.46-.98-.18-.65.28.33,1.3.09,2.13.23.83.14,1.02,1.35,1.76,1.3.37-.02.84-.09.88.42.05.51-.42,1.3-.14,1.4.18.06.28-.84.97-1.07.7-.23.51,1.03.65,1.72.14.7-.7.09-.79,1.07-.09.98.51.61,1.02.23,1.39-1.02.97.65,1.72.75,1.4.18,1.07-.89,1.9-1.07.84-.19,1.3-.46,1.72-.84.42-.37,1.25-.46,2.04.28.79.75,1.07.89,1.67.61.8-.37.65.65.32,1.03-.32.37-2.23.28-3.25.14-1.02-.14-1.76.79-1.25.89.51.09,1.25.56.65.84-.6.28-.46.84-1.07.79-.6-.05-1.25-1.4-1.95.19-.7,1.58,1.21,2.61,2.69,2.05,1.49-.56,1.95-.05,2.14.51.19.56,1.95,1,1.95,1,.84,1.82-.77.35-1.25.21-.49-.14-1.04.98-2.09.84-1.04-.14-1.39.35-1.11.56.28.21.84.77,0,1.12-.83.35-.42,1.33-.83,1.75-.42.42-.21,1.12.56,1.12s2.65-.14,2.92.35c.28.49,2.23,0,2.23,0,1.88,0-.14,1.12.07,1.68.21.56,3.97-.14,4.73.35.77.49-.14,1.61.35,1.89.49.28,1.53-.98.97-1.96-.56-.98.35-.56.14-1.47-.21-.91,1.88-1.47,2.86-1.33.97.14,1.67-.21,1.53.84-.14,1.05,1.04.21,1.6.42.56.21.56-.77-.07-1.19-.63-.42.56-1.05.91-1.26.35-.21-.84-.63,1.18-1.4,2.02-.77,3.55.21,5.01,1.26,1.46,1.05.84,3.91.42,5.66-.42,1.75-1.26,2.9-1.74,3.77-.52.93-1.17,1.49-2.14,1.84-3.53.62-8.18,1.59-10.29,2.78,5.35-1.22,13.07-1.9,19.48-1.9,6.41,0,14.04.69,19.39,1.9-2.68-1.51-8.35-2.66-13.16-3.2-.05-.1-.07-.2-.1-.32-.09-.42-1.02-.96-1.72-1.89-.69-.93-.51-2.38.05-3.63.56-1.26.97-3.21,2.18-3.73,1.21-.51.88-1.16,1.21-1.44.32-.28,1.07-1.07,1.49-.14.42.93-.6.05-1.39.7-.79.65.65.51.88,1.16.23.65,1.11.65,1.53.56.42-.09.74.14.46.56-.28.42-.51.65-.37,1.16.14.51.97.37,1.44-.09.46-.47.28-.56.74-.14.46.42.37-.47,1.02-.65.65-.19.37-.42.6-.79.23-.37.88-.33,1.25-.05.37.28.09,1.12.32.51.23-.61.79-.09.79-.09.6.74.74-.37,1.53-.23,1.38.24,1.25-.14,1.95-.42.7-.28.74-.47,1.16.28.42.75.37.47,1.67.51,1.3.05,2.28-1.49,2.69-2.05.42-.56.88-.51.51-1.72-.37-1.21-1.25.33-1.63-.89-.37-1.21-1.39-.33-1.72-1.26-.32-.93,1.11-.37,1.53-.61.42-.23.84.98,1.44.93.6-.05,1.39.56,1.81.09.42-.46-.46-.7-.88-1.3-.42-.61.6-.61,1.02-.23.42.37.6.19,1.44.23.84.05,1.11,1.07,1.44.7.32-.37-.65-.61.32-1.26.97-.65.93-.09,1.77-.05.83.05.93-1.26,1.25-1.91.32-.65.18-.93-.42-1.21-.6-.28-.79.28-1.07-.61-.28-.89-.79-1.03-1.39-.79-.6.23-1.95-.14-1.9-.79.05-.65-1.16-.89-1.9-.98-.74-.09-1.49-.14-1.63-.79-.14-.65-.46-.79-1.21-.79s-.97.23-1.53-.51c-.56-.75-1.35-.42-1.95.09-.6.51-.28,1.07-.97,1.26-.7.19-.88-.93-.23-1.44.65-.51.97-.33.6-.93-.37-.61,0-.42.32-1.02.32-.61.97-.19,1.02.51.05.7,1.16.37,1.67.33s1.21-.33,1.3.28c.09.61.7.42,1.67.05.97-.37,2,.79,2.37.89.37.09.23-.61.79-1.16.43-.43-.42-.23-.65-.93-.23-.7.46-.79,1.39-.14.93.65.51,1.21,1.02,1.44.51.23,1.16.98,2.13,0,.97-.98.97-.19,1.95-.79.97-.61,1.95,0,2.37-.61.42-.61.46-.51,1.76,0,1.3.51.84-.37.79-2.14-.05-1.77.74-.98.74-1.63,0-.65-.61-.21-.75-1Zm-71.63,6.01c-.23.61-.6.89-.97.56-.37-.33-.6-.23-.97-.42-.37-.19.51-.56.42-.79-.09-.23.14-.37.14-.37.46-.14.88.28,1.25.14.37-.14.37.28.14.88Zm2.37-3.45c-.51.33-2.32.79-2.37-.42-.02-.4.83-.56,1.62-.42.79.14,1.25.51.74.84Zm3.2,4.56c-.28.14-.28-.56-.28-.56.19-.05.56.42.28.56Zm12.12-9.64c.37-.14,1.11-.14.88.23-.23.37-.7,1.21-1.07.79-.37-.42.18-1.02.18-1.02Zm-.7,3.73c.28-.19.88-.65.93-.33.05.33,0,.65-.23,1.03-.23.37-.79.47-.97.14-.19-.33.28-.84.28-.84Zm-.47.73s-.34,1.29-.88.98c-.54-.3.38-1.05.88-.98Zm-3.71,9.29c0-.79-1.07.51-.7-.84.09-.32.65-.09.97-.7.32-.61.65-.51,1.11-.19.46.33,1.16.79.97,1.16-.19.37.6,1.63.32,1.91-.28.28-1.49,0-1.67-.42-.19-.42-1.02-.14-1.02-.93Zm.09,1.58c0,.42-.83.33-.97.05,0,0,.97-.47.97-.05Zm-.23-7.97c.15-.18.93.14,1.11.09.19-.05.09.89-.23,1.07s-.97.33-.97.05c0-.28-.09-.98.09-1.21Zm3.58-7.22c.6.61-.93.89-.97,1.86-.05.98-1.21.75-1.39.37-.18-.37-.46-.61-.79-.14-.32.47-1.16.61-.93-.05.23-.65.23-.84.23-.84.09-.28-.37-.79.14-.89.51-.09.97,1.16,1.39,1.12.42-.05.56-.79,1.07-.7.51.09.65-1.35,1.25-.74Zm-2.65-3.73c.3-.45,1.21-.23,1.76-.19.56.05.6.7.28.98-.32.28-.09,1.49-.83,1.12-.74-.37-1.95-.79-1.21-1.91Zm-.88-2.28c.19.56.46.65.05,1.12-.42.47.56,1.16-.23,1.35-.79.19-.97-.79-1.67-.84-.7-.05-1.76-.28-1.76-.79s-.88-.79-.6-1.49c.12-.3,1.3.09,1.49-.19.19-.28.6-.23.7.37.09.61.51.65.88.33.37-.33.97-.42,1.16.14Zm-1.49,8.43c0,.28.14.79-.56.7-.7-.09-1.25-.28-1.21-.7.05-.42.51-.56.93-.56s.93-.74,1.16-.42c.23.33-.32.7-.32.98Zm0,5.96c-.23.09-1.44.28-1.53-.23,0,.04,1.25-1.17,1.53-1.12.51.09.23,1.26,0,1.35Zm-2.97-21.75c.36-.21.74.14,1.11.09.37-.05.83-.79,1.53-.7.7.09,1.11.74.56,1.21,0,0-.6.79-1.16.84-.56.05-.7.89-1.16.65-.46-.23-.28-1.02-.74-1.07-.47-.05-.37-.89-.14-1.03Zm-.09,2.98c.13-.1.97-.47,1.07-.14.09.33.09,1.16-.28,1.4-.37.23-.74.47-.93.09-.19-.37-.51-.84.14-1.35Zm-1.9-.37c.13-.27,1.21.65.88,1.07-.32.42-1.11-.61-.88-1.07Zm1.21,6.99c-.28-.65-.74-1.21-.28-1.63.22-.2,1.11,0,1.21.23.09.23.7,1.4.46,1.68-.23.28-1.11.37-1.39-.28Zm-.56,14.91c-.18-.33-.09-.65-.09-.65.6-.28,1.11.47.93.84-.19.37-.65.14-.84-.19Zm1.21,8.85c-.65.84-1.21.7-.74-.14.23-.41,1.39-.7.74.14Zm.09-1.82c-.65.84-1.21.7-.74-.14.23-.41,1.39-.7.74.14Zm.05-8.57c-.32-.09-.56-.42-.42-.7.13-.27.51-.33.7,0,.19.33.05.79-.28.7Zm.33-1.44c.05-.23-.42-.84-.14-1.07.25-.21,1.39.47.97.79-.42.33-.88.51-.83.28Zm1.39,10.48c.05.65-1.02.7-1.16.51-.16-.22-.28-.93.19-1.4.46-.46,1.95-.65,1.86-.33-.09.33-.93.56-.88,1.21Zm1.11-8.71c-.23-.56-.19.51-.56.33-.37-.19-.42-.14-.37-.46.03-.19.28-.42.88-.47.6-.05,1.44.93,1.25,1.12-.18.19-.97.05-1.21-.51Zm5.25,9.32c-.51.09-1.33-.29-.56-.56,1.21-.42,0-1.35-.46-1.49-.46-.14-1.25-.14-1.53-.74-.28-.61-1.11.05-1.16.28-.05.23-.32.84-.83.74-.51-.09-.65.19-.46-.33.08-.22.79-.09.84-.47.05-.37.23-.84.6-.84s.88-.65,1.44-.51c.56.14,1.25,1.26,1.53,1.58.28.33,1.67,1.16,2.23,1.68.56.51.83.19.83.61s-1.95-.04-2.46.05Zm2.23-2.42c-.74-.19-1.25-.46-1.35-1.16-.09-.7-.93-1.63-.74-1.91.19-.28.42-.37.51-.56.21-.41.65-.89,1.02-.23.37.65.93.98.97,1.49.04.51.32,2.56-.42,2.38Zm45.75-.58c.26.14.14.58-.07.78-.21.2-.43.14-.43.14-.23-.52.24-1.05.5-.92Zm-6.48-3.24c.32-.72.65-.7.79-.33.14.37.79,1.54.23,1.58-.56.05-.33.98-.88.56s-.83-.37-.93-.93c-.09-.56.46-.14.79-.89Zm-2.74.93c.2-.22.74-.33.97.05.23.37.42.42.74.42s.33.42.14.79c-.19.37.28.65-.32.89-.6.23-.46.84-.93-.05-.46-.89,0-1.16-.42-1.54-.42-.37-.51-.19-.19-.56Zm-2.02,3c.5-.02,1.6-.13,1.45.46-.15.59-1.08.47-1.08.47-.38-.24-.87-.91-.36-.93Zm5.03-18.18c.3-.42.5-.09.5-.09,0,0,.03.18-.07.27-.23.2-.73.24-.43-.19Zm-4.96,2.41s.03.18-.07.27c-.24.2-.73.24-.43-.19.3-.43.5-.09.5-.09Zm-.66-7.63c.3-.43.51-.09.51-.09,0,0,.03.18-.07.27-.24.2-.73.24-.43-.19Zm-1.56-1.21c.34-.22.79-.98.6-.19-.19.79,1.02.19.56,1.02-.46.84-.84.89-.84.74s.6-.79-.14-.98c-.74-.18-1.11,0-.19-.6Zm-.5,7.53c.3-.43.51-.09.51-.09,0,0,.03.18-.07.27-.24.2-.73.24-.43-.19Zm-1.4-8.09c.18-.33,1.16-.05,1.02.28-.14.33-.14,1.21-.6.61-.46-.61-.79-.19-.42-.89Zm-3.54,5.3c.3-.42.5-.09.5-.09,0,0,.04.18-.07.27-.24.2-.73.24-.43-.19Zm-.78-4.97c.05-.19.6-.47.56,0-.05.47-.28.51-.7.37-.42-.14.08-.13.14-.37Zm.56,4.19c-.19.23-1.16.19-1.39.51-.23.33-1.25.33-1.3.09-.05-.23-.23-.42-.09-.61.16-.21,1.67.14,1.95-.23.28-.37,1.02,0,.84.23Zm-1.63-10.15c.6-.19.79.28.93.51.14.23-1.11,1.12-1.35.56-.13-.3-.19-.89.42-1.07Zm.19,6.62c.28-.23.84,0,.19.28-.65.28.32.65.65.89.32.23.56.61.18.61s-.74.42-1.21.51c-.46.09-1.16-.46-1.3-1.54-.14-1.07,1.27-.57,1.49-.75Zm-2.41-4.94c-.14-.51.51-.79.74-.51.23.28.84,1.16.42,1.35-.42.19-1.3,1.12-1.72.7-.4-.4.69-1.03.56-1.54Zm-.06,4.45c.39.15.2.64-.1.85s-.64.16-.64.16c-.34-.57.35-1.16.74-1.01Zm-3.47,2.26c.42.37-.6,1.58-1.02,1.07,0,0,.6-1.44,1.02-1.07Zm.32,10.95c0,.56-.46.56-.79.33-.32-.23-.65-.84-1.44-.75-.79.09-2.32.37-1.07-1.07.34-.39.88-.7,1.25-.42.37.28.7,1.35,1.07,1.07.37-.28.98.28.98.84Zm-.15-8.54c.36-.64.61-.13.61-.13,0,0,.04.28-.09.41-.29.31-.88.36-.52-.28Zm-2.26-.55c.28-.19,1.72-.37,1.63.09s-1.07,1.21-1.39,1.07c-.32-.14-.51-.98-.23-1.16Zm-.23,2.33c.46-.23.6,1.21.18,1.26-.42.05-1.58.51-1.72.75-.14.23-.74.19-.74-.05,0-1.12.65-.56.97-.56s.84-1.16,1.3-1.4Zm-6.22,12.44c.32,1.3-.91.57-1.25.93-.7.75-.93-.56-1.16-1.21-.23-.65.51-1.35.6-1.54.09-.19.74-1.07,1.3-.61.56.47-.28.89-.32,1.26-.05.37.51-.14.84,1.16Zm-.23-8.38c.02-.23.28-.51,1.07-.42.79.09,1.39.14,1.16.61-.23.47-.6,1.16-.88,1.16s-.37-.51-.79-.75c-.42-.23-.6,0-.56-.61Zm-.56,13c.24-.18.74-.23,1.16-.19.42.05,1.67.09,2.09.93.42.84.56.93-.09,1.4-.65.47-1.39.89-1.76.42-.37-.46-.79-.74-1.25-.93-.46-.19-.32-1.49-.14-1.63Zm2.92-3.49c-.14-.56-.28-.93,0-1.3.12-.17.84-.33.97-.09.14.23.84.28.88.7.05.42-.79.42-.97.61-.19.19-.74.65-.88.09Zm1.07,1.26c.41-.38.05-1.12.93-.51.88.61.6,1.35.23,1.4-.37.05-1.86-.23-1.16-.89Zm.97-8.71c-.6-.05-1.81.42-.65-.84.27-.29,1.44-.23,1.35.09-.09.33-.09.79-.7.75Zm-1.11-13.51c.26-.07-.05-1.63.28-1.54.32.09.93.74,1.53.84.6.09.79.37.28.75-.51.37-.69.42-.74.89-.05.47-.6.56-.7.19-.09-.37-.37-.7-.65-.33-.28.37-.93-.56,0-.79Zm-.88,9.04c.28.02,1.72.09,1.53.89-.19.79-.6.93-.97.93s-.51-.84-.84-1.02c-.33-.19-.37-.84.28-.79Zm-1.67-8.9c.37-.51.14-.93.79-.79.65.14.46,1.16.42,1.54-.05.37-.7.33-.93.61-.23.28-.6.28-.7-.09-.09-.37.05-.74.42-1.26Zm-.74,8.94c.74.56.88-.37,1.21,0,.32.37.14.93-.28,1.12-.42.19-.83-.14-1.35-.14s-.51-.09-.46-.37c.05-.28.14-1.17.88-.61Zm-.88-7.97c-.35.52-.52.67-.59.7.06,0,.18.11.26.65.14.89-.19,1.4-.32,1.26-.14-.14-.88-.56-.83-1.3.05-.75.84-1.21.14-1.35-.7-.14-.79.33-.88-.37-.06-.43-.05-.61.97-.56,1.02.05,1.85.09,1.25.98Zm-4.64-7.22c.6.14,1.76.37,1.62,1.02-.14.65-.6.84-.83.37-.23-.47-.05-.79-.88-.79s-.97.19-.97-.19c0-.29.47-.56,1.07-.42Zm-1.72,1.86c.48-.48.37.42,1.21.47s2.18,0,2.13.56c-.09,1.21,1.82.93,1.76,1.54-.09,1.02-1.25,1.21-1.39,1.49-.14.28-1.07.09-.97,1.07.09.98-.74-.16-.88-.56-.28-.79.84-1.21.65-1.63-.18-.42-.93.74-1.35.28-.42-.47-.93-.09-.56-1.03.37-.93.14-.79-.32-.98-.46-.19-.46-1.03-.28-1.21Zm-.88,18.07c.09-.93.37-.23.88,0,.51.23,1.53.56.09.89-.46.1-1.07.05-.98-.89Zm3.62,5.82c.14.65-.05.93-.46.84-.42-.09-.56.51-1.35.61-.79.09-1.46-1.14-1.46-1.51.28-.47,1.46-.49,1.97-.82.51-.32,1.16.24,1.3.89Zm-1.21-6.01c.09-.84,1.9-.7,2.14-.33.23.37.23.79-.19.65-.42-.14-.65.14-.97.23-.32.09-1.02-.16-.97-.56Zm-2.78,7.78c.35-.43,1.04.02,1.04.02.2.35.32,1.08-.09.91-.4-.17-1.3-.5-.95-.93Zm-.79-.1c-.52-.21-.88-.93.09-.79s.46.7.46.7c0,0-.33.19-.56.09Zm4.5,6.24c-.37.05-1.07-.74-1.49-.7-.42.05-.74.84-1.44.65-.7-.19-1.11-.75-1.07-1.26.05-.51-.42-.84.05-1.21.42-.34,1.11.98,1.63.51.51-.47.97-.37,1.49-.37s2.32.28,2.23,1.07c-.09.79-1.02,1.26-1.39,1.3Zm1.72-19.98c0,.65-.19,1.07-.56,1.07s-1.21.43-1.53.47c-.46.05-.05.19-.74-.33-.69-.51-.32-.19.14-.88.46-.7.74-.23,1.81-.7,1.07-.47.88-.28.88.37Zm-.7-4.52c-.51.09-.65-.79,0-.84.65-.05.97,1.07.93,1.21-.13.38-.42-.47-.93-.37Zm1.12,6.09c-.37-.16-.23-.54-.07-.82.16-.28.47-.07.47-.07.02.09.51.61.37.79-.14.17-.4.26-.77.11Zm9.65,20.37c-.88,1.4-1.72.7-1.9.51-.19-.19-.83-1.49-.09-2,.46-.32.51-1.26,1.25-.65.74.6,1.62.74.74,2.14Zm1.9-2.24c-.46-.05-1.21-1.09-.97-1.12.42-.05.88-.33,1.21.05.32.37.23,1.12-.23,1.07Zm.03-3.56c-.72-.21-1.96.24-1.21-.66.57-.67.77-1.66,1.36-.81.26.36,1.08,1.83-.15,1.47Zm1.78-19.5c-.65.42-.93.37-1.25.33-.32-.05-.42.75-.74.05-.14-.31,1.21-.79,1.67-.79s.84-.79,1.11-.37c.28.42.28,1.31-.19,1.72-.75.67-.13-1.23-.6-.93Zm2.8,24.08c-.04.43.03.82-.29.56-.28-.22-.23-1.48.18-1.24.4.24.16.25.12.68Zm-.2-3.16c-.37-.23-.97-.14-1.11.23-.14.37-.7.84-1.16.33-.46-.51-.19-1.68.65-1.16.43.26,1.95-.84,2.14-.56.19.28-.14,1.4-.51,1.17Zm1.4,4.15s-.23.19-.4.09c-.37-.21-.63-.93.07-.79.7.14.33.7.33.7Zm-.47-5.59c-.23-.05-1.11-.65-1.76-.65s-1.11.42-1.25-.19c-.07-.32.65-.75.97-.89.32-.14.97-.51,1.11-.89.14-.37.6-.51.74.23.14.74,1.86,1.3,1.67,1.82-.18.51-1.25.6-1.49.56Zm1.51,5.94c-.35.25-1.11.18-.69-.4.42-.58.77,0,.77,0,0,0,.07.29-.09.4Zm-.37-4.65c-.72-.55.05-.66.05-.66,0,0,.39.04.52.21.3.38.15,1.01-.57.45Zm1.22-15.68c-.32.23-.32-.33-1.3.23-.97.56-1.02-.19-.84-.51.36-.63.6-.84,1.16-.84s1.62-.47,1.81.42c.19.89,1.15,2.04.7,2.19-1.12.37-1.21-1.73-1.53-1.49Zm1.86,9.64c-.19.23-.32-.61-.88-.56-.56.05-1.16-.23-.83-.84,0,0,.97-.33,1.35.23.37.56.56.93.37,1.16Zm.05-9.44c-.33,0-.59-.24-.59-.53s.27-.53.59-.53.59.24.59.53c0,.29-.27.53-.59.53Zm.74.78c-.51-.19-.05-1.16.23-1.77.21-.45.28-1.21.74-.61.46.61.23,1.26-.05,1.63-.28.37.12,1.13-.93.75Zm1.3,7.27c-.6.65-.46.98-.23,1.4.23.42-1.39-.79-.6-1.86.22-.3,1.44-.19.83.47Zm1.11-1.4c-.51.19-.7.46-.88.23,0,0,.74-1.07,1.02-.98.28.09.37.56-.14.75Zm2.6-3.91c-.83-.33-.37,1.31-1.44.7-1.07-.61-1.11-.89-1.16-1.44-.05-.56-1.67-.61-.09-1.4.42-.21,1.39-.28,1.35.19-.05.46-1.3.79.09.89,1.3.09-.79.65,1.95.47.37-.03.14.93-.7.61Zm7.38-.75c-.28.33-1.39.74-1.58.23-.19-.51-.7.79-1.21.51-.51-.28-1.9-.84-2-.33-.09.51-.65.98-.88.7-.23-.28-1.16-1.3-.79-1.58.37-.28.51-1.07-.19-.84-.7.23-.56-1.26,0-1.54.36-.18.51-.37.84.14.32.51.79-.09.79-.46s.32-.89.65-.89,1.3.37,1.67.98c.37.61.56,1.63,1.11,1.77.56.14,1.86.98,1.58,1.3Z"/>
    </g>
  </g>
</svg>