<svg width="90" height="28" viewBox="0 0 90 28" fill="none" xmlns="http://www.w3.org/2000/svg">
<path d="M12.7724 14.3942C13.3293 13.7588 13.949 13.0763 13.949 12.6782C13.949 12.3253 13.7647 12.1135 12.9293 12.0429L12.3723 11.9958C11.4683 11.9252 11.1957 11.4075 11.1957 10.5623V10.2289H19.9832V10.5583C19.9832 11.2879 19.7047 11.8036 18.8066 11.9448L17.1828 12.1566C16.5572 12.6743 13.3587 15.8238 12.9175 16.4356L19.1537 26.2135L20.1048 26.3782C20.9382 26.5429 21.1245 26.9665 21.1245 27.647V27.9765H14.1235L8.51688 18.7379L12.7724 14.3942ZM0 27.6509C0 26.9685 0.231404 26.5214 1.01975 26.3821L2.4376 26.1605V2.4023L1.09231 1.93164C0.323575 1.64729 0.0686368 1.25508 0.0686368 0.470654V0H7.34024V26.2135L8.29136 26.3782C9.14834 26.59 9.31111 26.9665 9.31111 27.647V27.9765H0V27.6509Z" fill="white"/>
<path d="M25.0368 3.52991C25.0393 2.82662 25.3172 2.1523 25.811 1.65152C26.3048 1.15075 26.9752 0.863407 27.6784 0.851099C28.2037 0.848015 28.7181 1.00069 29.1566 1.28984C29.5952 1.57898 29.9382 1.99162 30.1423 2.47563C30.3465 2.95963 30.4026 3.49328 30.3036 4.00916C30.2046 4.52504 29.9549 5 29.586 5.37403C29.2172 5.74806 28.7458 6.00439 28.2314 6.11062C27.7169 6.21685 27.1825 6.16822 26.6957 5.97088C26.2089 5.77354 25.7915 5.43633 25.4962 5.00187C25.201 4.56741 25.0411 4.05518 25.0368 3.52991ZM22.7875 27.6509C22.7875 26.9685 23.1111 26.5214 23.8994 26.3821L25.2722 26.2174V12.3213L23.8131 11.9919C22.9797 11.7565 22.7934 11.3094 22.7934 10.5583V10.2289H30.165V26.2135L31.7888 26.3782C32.6222 26.4959 32.7693 26.9665 32.7693 27.647V27.9765H22.7875V27.6509Z" fill="white"/>
<path d="M34.448 27.647C34.448 26.9646 34.6558 26.5174 35.4677 26.3782L36.9287 26.2135V12.3213L35.556 11.9919C34.7205 11.7565 34.4421 11.3094 34.4421 10.5583V10.2289H41.3509C41.6722 12.1396 41.8271 14.0746 41.8137 16.012C42.5981 12.3684 44.8043 9.73666 47.7949 9.73666H47.9577V11.2565C47.9577 14.6883 47.1733 15.2041 44.5278 15.2041C42.3236 15.2041 41.8137 15.6747 41.8137 19.3655V26.088L44.5043 26.2841C45.3612 26.3547 45.524 26.894 45.524 27.6568V27.9863H34.448V27.647Z" fill="white"/>
<path d="M62.0361 18.5261C62.0361 12.1331 60.8595 10.4642 58.1395 10.4642C55.3823 10.4642 54.2448 12.1331 54.2448 18.5261C54.2448 24.9192 55.2254 26.7626 58.1395 26.7626C60.8301 26.7626 62.0361 24.929 62.0361 18.5261ZM58.3101 9.266C63.5952 9.266 67.5604 12.3919 67.5604 18.3849C67.5604 24.3779 63.2716 27.9765 57.9865 27.9765C52.6544 27.9765 48.6892 24.7093 48.6892 18.7144C48.6892 12.7194 52.978 9.266 58.3101 9.266Z" fill="white"/>
<path d="M68.3409 27.647C68.3409 26.9646 68.5723 26.5174 69.4529 26.3782L70.8432 26.2135V12.3213L69.4529 11.9919C68.6194 11.7565 68.3409 11.3094 68.3409 10.5583V10.2289H75.2497C75.4341 11.4742 75.5733 12.9744 75.642 14.555C76.3832 12.086 78.8404 9.76019 81.8762 9.76019C85.4237 9.76019 87.3259 11.686 87.3259 15.5885V26.2135L88.832 26.3782C89.689 26.5429 89.944 26.9665 89.944 27.647V27.9765H80.2093V27.647C80.2093 26.9646 80.4426 26.5645 81.3231 26.3782L82.4351 26.2135V16.4356C82.4351 13.5901 81.4545 12.6037 79.7465 12.6037C77.8442 12.6037 75.7596 14.4373 75.7596 18.3143V26.237L77.1029 26.4017C78.0541 26.5645 78.2168 26.9901 78.2168 27.6705V28H68.4115V27.647H68.3409Z" fill="white"/>
</svg>
