<?xml version="1.0" standalone="no"?>
<!DOCTYPE svg PUBLIC "-//W3C//DTD SVG 20010904//EN"
 "http://www.w3.org/TR/2001/REC-SVG-20010904/DTD/svg10.dtd">
<svg version="1.0" xmlns="http://www.w3.org/2000/svg"
 width="300.000000pt" height="518.000000pt" viewBox="0 0 300.000000 518.000000"
 preserveAspectRatio="xMidYMid meet">
<metadata>
Created by potrace 1.10, written by Peter Selinger 2001-2011
</metadata>
<g transform="translate(0.000000,518.000000) scale(0.050000,-0.050000)"
fill="#f7a381" stroke="none">
<path d="M2642 9918 c-146 -28 -242 -131 -242 -258 0 -20 -18 -75 -39 -123
-26 -58 -36 -111 -29 -157 15 -98 -21 -186 -70 -171 -50 16 -63 -40 -48 -207
13 -147 34 -202 75 -202 18 0 37 -41 52 -115 12 -63 46 -173 74 -243 l51 -129
-48 -149 c-30 -92 -60 -153 -81 -159 -41 -11 -86 -93 -71 -132 75 -195 814
-230 1127 -53 205 116 239 184 117 238 -107 47 -109 62 -40 274 28 84 50 177
50 206 0 28 14 96 30 150 33 109 40 283 12 301 -18 11 -15 146 9 376 19 191
-68 445 -167 486 -183 77 -549 109 -762 67z m353 -134 c14 -19 44 -54 66 -78
23 -25 38 -52 32 -61 -6 -9 20 -16 57 -16 58 0 64 4 48 35 -11 20 -33 36 -49
36 -16 0 -29 17 -29 37 0 54 194 54 211 -1 7 -20 47 -97 90 -171 99 -168 94
-292 -8 -208 -17 15 -47 16 -91 4 -35 -11 -77 -14 -93 -8 -16 6 -43 1 -58 -12
-16 -14 -40 -18 -54 -9 -16 10 -20 4 -12 -17 26 -66 -180 -80 -239 -17 -84 90
-386 106 -386 21 0 -20 -70 -16 -92 6 -24 24 10 104 72 169 33 35 60 76 61 90
0 14 19 1 42 -30 l42 -56 48 70 c26 39 66 81 87 92 51 27 51 52 0 66 -22 6
-35 2 -29 -8 10 -17 -23 -26 -86 -23 -14 0 -25 -8 -25 -18 0 -11 -10 -13 -23
-5 -16 10 -12 22 13 40 20 15 43 22 52 17 8 -5 28 8 43 30 57 81 257 97 310
25z m-332 -482 c-40 -25 49 -82 127 -82 94 0 111 -29 74 -127 -61 -162 -160
-208 -340 -160 -37 10 -123 123 -100 134 3 2 26 14 50 28 39 21 48 19 66 -15
26 -49 135 -54 221 -9 115 59 44 140 -103 116 -78 -12 -82 -10 -69 30 11 35 6
43 -28 43 -41 0 -53 21 -28 47 8 7 46 13 85 13 48 -1 63 -6 45 -18z m-173
-100 c-14 -47 -70 -57 -70 -13 0 27 61 76 77 61 4 -4 1 -26 -7 -48z m910 32
c0 -49 -44 -71 -117 -60 -91 14 -95 18 -63 56 31 38 180 42 180 4z m-1120
-216 c0 -102 -7 -156 -20 -148 -11 7 -20 84 -20 172 0 102 7 156 20 148 11 -7
20 -84 20 -172z m410 102 c34 28 69 11 39 -19 -46 -45 -139 -33 -146 19 -7 49
-7 49 35 12 34 -31 47 -33 72 -12z m351 -55 c13 -41 34 -93 45 -115 12 -22 24
-53 26 -70 3 -16 10 -48 17 -70 15 -45 -174 -67 -223 -27 -13 11 -44 14 -68 6
-39 -12 -42 -8 -29 42 12 49 10 53 -18 30 -72 -60 -21 -141 88 -141 105 -1
158 -20 171 -61 12 -38 83 -72 105 -51 6 6 -4 29 -23 49 -32 36 -31 39 10 49
44 12 47 69 8 161 -14 33 -11 35 24 16 59 -31 185 -33 272 -4 101 33 105 25
45 -105 -35 -77 -51 -146 -51 -223 0 -138 -58 -217 -118 -163 -38 35 -94 -19
-162 -157 -33 -67 -104 -89 -153 -48 -26 21 -36 20 -56 -9 -52 -71 -231 -15
-231 72 0 23 -19 61 -42 86 -84 89 0 166 154 142 47 -8 65 -5 55 10 -13 22 72
18 325 -15 86 -12 104 -8 115 21 19 49 -1 104 -43 116 -19 5 -51 16 -71 25
-33 13 -36 8 -23 -49 13 -60 11 -63 -34 -52 -78 20 -239 21 -351 3 -105 -17
-151 10 -65 37 51 16 32 50 -26 49 -86 -1 -172 -113 -114 -149 12 -7 10 -26
-5 -51 -18 -29 -19 -53 -1 -99 18 -49 17 -60 -6 -60 -17 0 -28 20 -28 50 0 28
-19 69 -42 92 -66 66 -87 161 -42 198 29 24 33 43 20 94 -19 72 -53 103 -75
67 -29 -46 -81 110 -81 241 0 134 19 139 59 15 66 -209 394 -199 502 16 76
150 100 155 140 32z m284 43 c32 32 55 23 55 -21 0 -17 -25 -27 -70 -27 -38 0
-70 -9 -70 -20 0 -32 144 -23 183 12 46 42 107 -8 87 -71 -44 -140 -371 -87
-398 64 -9 56 17 96 34 50 7 -18 19 -16 45 10 33 31 40 31 70 4 30 -28 38 -28
64 -1z m-778 -1037 c102 -95 184 -147 268 -172 47 -14 85 -33 85 -42 0 -9 73
-17 162 -17 118 0 159 -7 153 -24 -25 -76 -558 -80 -667 -6 -40 28 -81 50 -91
50 -33 0 -17 -34 28 -57 42 -22 41 -23 -15 -12 -33 6 -82 35 -110 63 -36 37
-40 48 -15 39 26 -9 35 -1 35 28 0 49 74 199 97 199 10 0 41 -22 70 -49z"/>
<path d="M2780 9770 c0 -20 20 -30 60 -30 64 0 81 28 28 48 -53 20 -88 13 -88
-18z"/>
<path d="M2693 8988 c-31 -17 -52 -35 -48 -40 14 -13 109 26 124 51 18 29 -8
25 -76 -11z"/>
<path d="M2684 8796 c-44 -44 -29 -87 16 -46 41 37 52 70 24 70 -9 0 -27 -11
-40 -24z"/>
<path d="M2833 8658 c-40 -47 -29 -77 15 -40 17 14 50 18 82 10 51 -12 53 -10
31 29 -29 55 -82 55 -128 1z"/>
<path d="M2868 8357 c-16 -26 66 -96 114 -97 41 0 106 71 89 99 -18 28 -185
27 -203 -2z"/>
<path d="M4948 9723 c8 -13 7 -23 -2 -23 -9 0 -27 -16 -39 -37 -23 -37 -22
-37 76 -25 19 3 -4 80 -29 95 -11 8 -14 3 -6 -10z"/>
<path d="M5548 9723 c8 -13 7 -23 -2 -23 -9 0 -27 -16 -39 -37 -23 -37 -22
-37 76 -25 19 3 -4 80 -29 95 -11 8 -14 3 -6 -10z"/>
<path d="M5848 9723 c8 -13 7 -23 -2 -23 -9 0 -27 -16 -39 -37 -23 -37 -22
-37 76 -25 19 3 -4 80 -29 95 -11 8 -14 3 -6 -10z"/>
<path d="M5765 9098 c-25 -9 -45 -21 -45 -27 0 -5 20 -3 45 6 40 14 86 16 100
4 16 -13 110 -9 102 4 -6 9 -25 15 -44 14 -18 -2 -37 -2 -43 0 -36 14 -76 14
-115 -1z"/>
<path d="M5799 8855 c-17 -57 -13 -93 12 -103 19 -7 26 -3 18 10 -9 14 8 18
49 11 34 -5 67 -1 74 10 7 11 -4 18 -25 16 -20 -2 -44 -1 -52 1 -8 3 -26 7
-40 8 -14 2 -23 15 -20 28 4 19 -11 37 -16 19z"/>
<path d="M5862 8094 c-25 -25 -30 -114 -6 -114 9 0 16 25 15 55 -1 42 8 54 34
49 42 -7 46 7 7 22 -15 6 -37 1 -50 -12z"/>
<path d="M3625 8009 c6 -7 82 -30 168 -52 86 -23 216 -57 287 -76 72 -19 220
-59 329 -89 357 -95 462 -185 639 -543 147 -299 163 -346 221 -629 152 -742
157 -783 162 -1450 3 -308 11 -704 17 -880 6 -176 3 -446 -8 -600 -12 -154
-29 -397 -40 -540 -10 -143 -21 -296 -23 -340 -7 -125 -15 -129 -212 -87 -274
57 -300 43 -185 -103 33 -42 60 -83 60 -93 0 -50 -485 -275 -635 -294 -30 -4
-80 -18 -111 -30 -31 -13 -74 -23 -95 -23 -20 0 -112 -17 -203 -38 -401 -92
-1078 -96 -1586 -9 -99 17 -207 35 -240 41 -343 56 -568 158 -862 392 -260
206 -424 306 -454 276 -30 -30 45 -125 89 -111 55 17 67 -40 24 -113 -34 -57
-290 -153 -419 -157 -15 -1 -26 131 -35 404 -6 223 -21 464 -31 535 -90 609
80 2952 248 3423 184 515 325 667 780 845 132 51 258 101 280 111 22 9 112 45
200 80 88 34 174 71 190 81 49 32 -12 24 -96 -12 -41 -17 -195 -76 -342 -130
-532 -196 -700 -299 -831 -508 -172 -272 -289 -636 -329 -1020 -153 -1465
-190 -2249 -135 -2900 18 -209 38 -513 45 -675 14 -301 18 -313 94 -271 24 13
112 39 194 56 181 40 289 149 239 243 -22 40 -21 44 3 25 15 -12 127 -101 248
-197 352 -281 589 -369 1260 -469 808 -121 1883 20 2363 309 63 38 130 74 150
80 56 18 45 62 -38 164 l-75 92 124 -13 c68 -7 169 -30 224 -51 128 -49 146
-31 140 141 -3 69 8 225 24 346 50 389 35 2525 -20 2852 -132 786 -170 920
-375 1322 -186 365 -245 401 -944 587 -381 101 -507 127 -478 98z"/>
<path d="M2785 7509 c6 -50 16 -97 23 -103 26 -27 36 16 23 103 -18 121 -60
121 -46 0z"/>
<path d="M5871 7582 c-7 -12 -2 -22 13 -23 17 0 14 -9 -9 -27 -36 -27 -48 -92
-17 -92 10 0 16 16 15 35 -2 19 17 44 42 55 25 11 45 27 45 36 0 9 -10 10 -22
3 -12 -8 -29 -3 -38 11 -11 17 -19 18 -29 2z"/>
<path d="M2800 7313 c0 -27 -6 -76 -12 -110 -12 -56 -8 -63 32 -63 37 0 42 8
33 45 -7 25 -13 74 -13 110 0 36 -9 65 -20 65 -11 0 -20 -21 -20 -47z"/>
<path d="M4730 7245 c-7 -41 -30 -143 -51 -226 -44 -173 -45 -179 -22 -179 9
0 28 38 42 85 14 47 33 106 43 131 31 79 46 264 22 264 -12 0 -28 -34 -34 -75z"/>
<path d="M4514 6835 c7 -69 18 -147 26 -175 12 -48 -29 -212 -73 -287 -16 -30
-10 -70 29 -180 50 -144 50 -141 89 -893 4 -77 -2 -93 -40 -110 -25 -11 -45
-30 -45 -43 0 -45 24 -87 51 -87 15 0 41 -20 58 -44 17 -25 31 -33 31 -19 0
14 -27 53 -59 85 l-59 60 47 17 c26 10 52 30 57 45 6 14 12 -12 12 -58 1 -46
10 -104 20 -130 21 -57 52 -551 32 -532 -7 7 -20 97 -28 200 -10 134 -14 58
-13 -276 1 -371 -5 -468 -28 -496 -18 -23 -27 -76 -25 -152 2 -79 -10 -148
-36 -211 -52 -121 -51 -135 21 -207 78 -78 62 -112 -35 -72 -82 35 -146 39
-146 9 0 -11 16 -25 35 -31 19 -5 60 -23 92 -39 31 -16 68 -29 83 -29 19 0 30
-49 39 -175 19 -254 19 -256 41 -245 26 13 34 393 10 465 -14 43 -12 55 11 55
16 0 29 15 29 32 0 23 -12 29 -40 22 -47 -12 -46 -29 -19 266 30 318 35 460
19 460 -8 0 -20 -101 -27 -225 -25 -429 -35 -501 -68 -469 -25 26 -25 48 3
177 17 81 30 183 28 227 -5 128 48 411 66 350 8 -28 16 62 20 210 8 401 0 521
-62 890 -10 61 -28 254 -40 430 -20 296 -50 486 -96 610 -14 37 -6 85 29 190
41 118 45 154 29 230 -11 50 -25 133 -32 185 -19 143 -52 116 -36 -30z"/>
<path d="M2797 6815 c-1 -36 -5 -99 -7 -140 -3 -46 5 -75 19 -75 15 0 25 50
28 140 3 87 -3 140 -16 140 -12 0 -22 -29 -24 -65z"/>
<path d="M1273 6665 c-15 -93 17 -133 46 -57 29 76 26 132 -6 132 -16 0 -33
-31 -40 -75z"/>
<path d="M3380 6563 c0 -21 236 -54 255 -35 23 23 -12 35 -133 44 -70 6 -122
2 -122 -9z"/>
<path d="M3685 6535 c4 -13 41 -25 83 -28 49 -3 72 3 67 18 -4 13 -41 25 -83
28 -49 3 -72 -3 -67 -18z"/>
<path d="M3860 6524 c0 -25 135 -56 154 -36 20 19 -4 33 -82 45 -46 8 -72 4
-72 -9z"/>
<path d="M4040 6500 c0 -11 14 -21 30 -22 17 -2 45 -4 63 -5 19 -2 37 8 42 22
6 17 -15 25 -63 25 -40 0 -72 -9 -72 -20z"/>
<path d="M4200 6501 c0 -30 37 -45 80 -31 60 19 48 50 -20 50 -33 0 -60 -8
-60 -19z"/>
<path d="M1319 6325 c-10 -30 -26 -68 -36 -85 -20 -37 10 -160 39 -160 12 0
19 29 17 65 -3 36 6 90 18 121 13 31 23 70 23 85 0 49 -40 32 -61 -26z"/>
<path d="M2773 6327 c-21 -21 -15 -147 7 -147 11 0 20 16 20 35 0 19 6 55 13
80 11 43 -11 60 -40 32z"/>
<path d="M629 6099 c-7 -12 -8 -50 -2 -85 7 -35 17 -95 23 -134 34 -210 140
-521 183 -535 13 -4 -12 97 -55 224 -49 144 -83 289 -91 382 -13 146 -30 192
-58 148z"/>
<path d="M1268 6031 c-16 -41 -1 -121 22 -121 11 0 23 34 26 75 6 74 -26 105
-48 46z"/>
<path d="M5264 5949 c3 -27 15 -50 26 -50 11 0 23 23 26 50 5 36 -3 51 -26 51
-23 0 -31 -15 -26 -51z"/>
<path d="M2733 5966 c-27 -26 -13 -126 17 -126 20 0 30 20 30 59 0 59 -23 91
-47 67z"/>
<path d="M1249 5810 c-5 -16 -13 -43 -18 -59 -17 -54 29 -54 49 -1 11 29 20
61 20 71 0 31 -40 22 -51 -11z"/>
<path d="M1212 5368 c-20 -53 -14 -328 8 -328 11 0 20 34 20 75 0 41 6 122 13
180 12 102 -13 146 -41 73z"/>
<path d="M1208 4918 c-31 -51 -43 -479 -28 -1008 5 -154 2 -307 -6 -340 -7
-34 -3 -79 10 -105 23 -45 18 -58 -69 -232 -24 -50 6 -78 75 -70 116 14 127
200 47 822 -21 163 -18 323 16 767 11 155 -8 225 -45 166z m52 -1381 c16 -158
14 -206 -9 -260 -27 -62 -29 -40 -27 273 2 187 6 304 9 260 4 -44 16 -167 27
-273z"/>
<path d="M1352 3347 c-7 -18 -8 -37 -3 -43 18 -18 114 35 101 56 -20 32 -84
23 -98 -13z"/>
<path d="M1030 3300 c-19 -31 6 -58 50 -54 53 4 54 74 1 74 -21 0 -44 -9 -51
-20z"/>
<path d="M4047 3295 c-13 -22 47 -42 83 -28 17 7 30 20 30 30 0 22 -99 20
-113 -2z"/>
<path d="M3530 3262 c-96 -20 -50 -52 69 -49 99 3 179 47 84 47 -22 0 -52 3
-66 8 -15 4 -54 1 -87 -6z"/>
<path d="M4060 2970 c-20 -24 -19 -30 6 -30 45 0 94 22 94 42 0 29 -73 20
-100 -12z"/>
<path d="M1920 2423 c0 -39 75 -63 284 -94 114 -16 242 -38 286 -49 108 -26
130 -25 130 6 0 36 -421 124 -524 109 -30 -4 -49 0 -44 9 6 9 -7 16 -29 16
-22 0 -54 5 -71 12 -18 7 -32 3 -32 -9z"/>
</g>
</svg>
