<?xml version="1.0" encoding="utf-8"?>
<!-- Generator: Adobe Illustrator 24.0.1, SVG Export Plug-In . SVG Version: 6.00 Build 0)  -->
<svg version="1.1" id="Ebene_1" xmlns="http://www.w3.org/2000/svg" xmlns:xlink="http://www.w3.org/1999/xlink" x="0px" y="0px"
	 viewBox="0 0 90 80.6" style="enable-background:new 0 0 90 80.6;" xml:space="preserve">
<style type="text/css">
	.st0{fill:#B5123E;}
</style>
<g>
	<path class="st0" d="M75.6,13.4V2.7h5.8V0.3H67.1v2.3h5.8v13.2L19.6,64v-0.7c0-6.2-3.3-10-9.6-10c-5.8,0-9.3,4.5-9.3,10v5.6h13.4
		L1.3,80.6H90V0.3L75.6,13.4z M3.2,66.2V63c0-3.9,2.6-6.9,7-6.9c4.9,0,7.1,2.6,7.1,7.2v2.8l-0.1,0.1H3.2z"/>
	<rect x="0.8" y="45.2" class="st0" width="18.8" height="2.7"/>
	<path class="st0" d="M10.1,40c6,0,9.8-4,9.8-9.9c0-2.9-0.5-4.7-0.8-5.7H9.3V31h2.2v-4h5.7c0.1,0.7,0.3,1.2,0.3,3
		c0,3.9-2.9,7.1-7.4,7.1c-4.2,0-7.4-2.9-7.4-7.2c0-2.4,0.4-3.9,1.3-5.2l-2.7-0.2c-0.5,1.6-0.9,2.8-0.9,5.5C0.5,35.8,4.3,40,10.1,40z
		"/>
	<path class="st0" d="M4.3,16.9c-1.4,0-3-0.5-3.9-0.9l-0.3,2.5c1.2,0.4,2.5,0.8,3.8,0.8c3.7,0,6.8-1.6,6.8-5.5c0-6.1-8-5.3-8-8.9
		c0-1.9,1.8-2.5,3.2-2.5c1.4,0,2.1,0.2,3.5,0.8l0.4-2.5C8.7,0.2,7.2,0,6,0C2.6,0,0,1.8,0,5.1c0,5.8,8,4.6,8,8.8
		C8,16,5.9,16.9,4.3,16.9z"/>
	<rect x="14.4" y="0.3" class="st0" width="2.7" height="18.6"/>
	<polygon class="st0" points="32.3,16.6 24.5,16.6 24.5,0.3 21.8,0.3 21.8,18.9 32.3,18.9 	"/>
	<polygon class="st0" points="45.7,16.6 38,16.6 38,10.4 45,10.4 45,8.1 38,8.1 38,2.7 45.7,2.7 45.7,0.3 35.3,0.3 35.3,18.9 
		45.7,18.9 	"/>
	<polygon class="st0" points="52.6,3.6 52.7,3.6 61.1,18.9 64.5,18.9 64.5,0.3 61.8,0.3 61.8,15.3 61.8,15.3 53.6,0.3 49.9,0.3 
		49.9,18.9 52.6,18.9 	"/>
</g>
</svg>
