<?xml version="1.0" standalone="no"?>
<!DOCTYPE svg PUBLIC "-//W3C//DTD SVG 20010904//EN"
 "http://www.w3.org/TR/2001/REC-SVG-20010904/DTD/svg10.dtd">
<svg version="1.0" xmlns="http://www.w3.org/2000/svg"
 width="100.000000pt" height="100.000000pt" viewBox="0 0 100.000000 100.000000"
 preserveAspectRatio="xMidYMid meet">
<metadata>
Created by potrace 1.10, written by Peter Selinger 2001-2011
</metadata>
<g transform="translate(0.000000,100.000000) scale(0.100000,-0.100000)"
fill="#000000" stroke="none">
<path d="M389 914 c-51 -25 -97 -51 -101 -57 -11 -17 -10 -245 1 -265 5 -9 55
-39 110 -67 l101 -49 101 49 c55 28 105 58 110 67 11 20 12 248 1 265 -9 15
-191 103 -212 103 -9 0 -59 -21 -111 -46z m195 -30 c42 -20 76 -38 76 -40 0
-2 -36 -22 -80 -44 l-80 -40 -84 42 -85 42 77 37 c42 21 82 38 88 38 7 1 46
-15 88 -35z m-104 -256 c0 -55 -3 -98 -7 -96 -5 2 -41 20 -80 41 l-73 37 0 98
0 98 80 -39 80 -39 0 -100z m200 83 l0 -99 -76 -41 c-41 -23 -77 -41 -80 -41
-2 0 -4 44 -4 98 l0 99 78 40 c42 22 78 41 80 41 1 1 2 -43 2 -97z"/>
<path d="M104 815 l-25 -25 3 -255 3 -255 -28 0 c-34 0 -43 -21 -27 -61 25
-58 30 -59 470 -59 440 0 445 1 470 59 16 40 7 61 -27 61 l-28 0 3 255 3 255
-25 25 c-21 21 -35 25 -81 25 -48 0 -55 -2 -55 -20 0 -17 7 -20 48 -20 26 0
53 -5 60 -12 17 -17 17 -479 0 -496 -17 -17 -719 -17 -736 0 -17 17 -17 479 0
496 7 7 34 12 60 12 41 0 48 3 48 20 0 18 -7 20 -55 20 -46 0 -60 -4 -81 -25z
m826 -585 c0 -26 -52 -30 -430 -30 -378 0 -430 4 -430 30 0 6 160 10 430 10
270 0 430 -4 430 -10z"/>
<path d="M360 441 c0 -29 -6 -44 -22 -55 -18 -13 -19 -18 -8 -31 12 -14 16
-13 42 11 22 22 28 37 28 71 0 36 -3 43 -20 43 -17 0 -20 -7 -20 -39z"/>
<path d="M600 437 c0 -34 6 -49 28 -71 27 -25 30 -25 43 -10 12 15 11 19 -9
32 -16 11 -22 24 -22 53 0 32 -3 39 -20 39 -17 0 -20 -7 -20 -43z"/>
<path d="M480 380 c0 -53 2 -60 20 -60 18 0 20 7 20 60 0 53 -2 60 -20 60 -18
0 -20 -7 -20 -60z"/>
</g>
</svg>
