<svg version="1.1" id="Ebene_1" xmlns="http://www.w3.org/2000/svg" xmlns:xlink="http://www.w3.org/1999/xlink" x="0px" y="0px" width="94px" height="59px" viewBox="0 0 235.276 146.835" enable-background="new 0 0 235.276 146.835" xml:space="preserve"><g><defs><rect id="SVGID_1_" width="235.276" height="146.835"></rect></defs><clipPath id="SVGID_2_"><use xlink:href="#SVGID_1_" overflow="visible"></use></clipPath><path clip-path="url(#SVGID_2_)" fill="#003DA3" d="M191.177,41.146h-13.964c-2.3,0-3.45,1.15-3.45,3.45v98.737c0,2.301,1.15,3.45,3.45,3.45h13.964c2.3,0,3.45-1.149,3.45-3.45V44.595C194.627,42.295,193.477,41.146,191.177,41.146M55.386,143.332l25.465-98.408c0.546-2.518-0.55-3.779-3.286-3.779H62.122c-2.192,0-3.507,1.15-3.943,3.45l-17.25,72.55h-0.657l-17.251-72.55c-0.439-2.3-1.753-3.45-3.943-3.45H3.635c-2.957,0-4.053,1.261-3.285,3.779l25.464,98.408c0.437,2.301,1.807,3.45,4.107,3.45h21.522C53.522,146.782,54.837,145.633,55.386,143.332"></path></g><polygon fill="#9DD0F4" points="173.995,0 173.995,18.861 216.535,18.861 216.535,61.28 235.275,61.28 235.275,0 "></polygon><g><defs><rect id="SVGID_3_" width="235.276" height="146.835"></rect></defs><clipPath id="SVGID_4_"><use xlink:href="#SVGID_3_" overflow="visible"></use></clipPath><path clip-path="url(#SVGID_4_)" fill="#003DA3" d="M91.057,146.782h40.939c8.543,0,15.196-3.758,19.96-8.415c4.766-4.654,7.863-11.254,7.863-19.797V69.357c0-8.543-3.098-15.14-7.863-19.796c-4.764-4.654-11.417-8.416-19.96-8.416H91.774c-2.3,0-3.45,1.15-3.45,3.45v98.737c0,2.3,1.15,3.45,3.45,3.45H91.057z M108.831,126.188V61.024c0-1.204,0.601-1.807,1.807-1.807h18.625c3.504,0,5.995,0.739,7.475,2.218c1.479,1.478,2.218,3.971,2.218,7.475v49.391c0,3.508-0.739,6.714-2.218,8.192c-1.479,1.478-3.971,2.218-7.475,2.218h-18.625c-1.206,0-1.807-0.601-1.807-1.808V126.188z"></path></g></svg>